<svg width="24" height="24" viewBox="0 0 24 24" fill="none" xmlns="http://www.w3.org/2000/svg">
<mask id="mask0_325_34854" style="mask-type:alpha" maskUnits="userSpaceOnUse" x="0" y="0" width="24" height="24">
<rect width="24" height="24" fill="#D9D9D9"/>
</mask>
<g mask="url(#mask0_325_34854)">
<path d="M7 23C6.45 23 5.97917 22.8042 5.5875 22.4125C5.19583 22.0208 5 21.55 5 21V3C5 2.45 5.19583 1.97917 5.5875 1.5875C5.97917 1.19583 6.45 1 7 1H14V3H7V4H14V6H7V18H17V16H19V21C19 21.55 18.8042 22.0208 18.4125 22.4125C18.0208 22.8042 17.55 23 17 23H7ZM17 10.2V4C17 3.71667 17.0958 3.47917 17.2875 3.2875C17.4792 3.09583 17.7167 3 18 3C18.2833 3 18.5208 3.09583 18.7125 3.2875C18.9042 3.47917 19 3.71667 19 4V10.2L20.9 8.3C21.0833 8.11667 21.3167 8.025 21.6 8.025C21.8833 8.025 22.1167 8.11667 22.3 8.3C22.4833 8.48333 22.575 8.71667 22.575 9C22.575 9.28333 22.4833 9.51667 22.3 9.7L18.7 13.3C18.5 13.5 18.2667 13.6 18 13.6C17.7333 13.6 17.5 13.5 17.3 13.3L13.7 9.7C13.5167 9.51667 13.425 9.28333 13.425 9C13.425 8.71667 13.5167 8.48333 13.7 8.3C13.8833 8.11667 14.1167 8.025 14.4 8.025C14.6833 8.025 14.9167 8.11667 15.1 8.3L17 10.2ZM14 4H7V3H14V4Z" fill="#FFFBFF"/>
</g>
</svg>
