<svg width="24" height="24" viewBox="0 0 24 24" fill="none" xmlns="http://www.w3.org/2000/svg">
<g id="person_2">
<mask id="mask0_325_34855" style="mask-type:alpha" maskUnits="userSpaceOnUse" x="0" y="0" width="24" height="24">
<rect id="Bounding box" width="24" height="24" fill="#D9D9D9"/>
</mask>
<g mask="url(#mask0_325_34855)">
<path id="person_2_2" d="M9.775 12C9.175 12 8.675 11.775 8.275 11.325C7.875 10.875 7.71667 10.35 7.8 9.75L8.125 7.3C8.25833 6.35 8.69167 5.5625 9.425 4.9375C10.1583 4.3125 11.0167 4 12 4C12.9833 4 13.8417 4.3125 14.575 4.9375C15.3083 5.5625 15.7417 6.35 15.875 7.3L16.2 9.75C16.2833 10.35 16.125 10.875 15.725 11.325C15.325 11.775 14.825 12 14.225 12H9.775ZM6 20C5.45 20 4.97917 19.8042 4.5875 19.4125C4.19583 19.0208 4 18.55 4 18V17.2C4 16.6333 4.14583 16.1125 4.4375 15.6375C4.72917 15.1625 5.11667 14.8 5.6 14.55C6.63333 14.0333 7.68333 13.6458 8.75 13.3875C9.81667 13.1292 10.9 13 12 13C13.1 13 14.1833 13.1292 15.25 13.3875C16.3167 13.6458 17.3667 14.0333 18.4 14.55C18.8833 14.8 19.2708 15.1625 19.5625 15.6375C19.8542 16.1125 20 16.6333 20 17.2V18C20 18.55 19.8042 19.0208 19.4125 19.4125C19.0208 19.8042 18.55 20 18 20H6Z" fill="#FFFBFF"/>
</g>
</g>
</svg>
