<svg width="131" height="41" viewBox="0 0 131 41" fill="none" xmlns="http://www.w3.org/2000/svg">
<path fill-rule="evenodd" clip-rule="evenodd" d="M26.269 20.7107C26.2908 19.0143 27.1802 17.4472 28.6256 16.5587C27.7096 15.2506 26.2305 14.4509 24.6344 14.401C22.9552 14.2247 21.3272 15.4058 20.4715 15.4058C19.5992 15.4058 18.2817 14.4185 16.863 14.4477C14.9963 14.508 13.2982 15.5436 12.3901 17.1755C10.4561 20.524 11.8987 25.445 13.7513 28.1516C14.6782 29.477 15.7615 30.9574 17.1789 30.9049C18.566 30.8474 19.084 30.0204 20.7583 30.0204C22.4171 30.0204 22.9031 30.9049 24.3493 30.8715C25.8377 30.8474 26.7754 29.5403 27.6698 28.2024C28.3358 27.258 28.8483 26.2143 29.1882 25.1099C27.4205 24.3622 26.2711 22.6301 26.269 20.7107Z" fill="#FFFBFF"/>
<path fill-rule="evenodd" clip-rule="evenodd" d="M23.5376 12.621C24.3491 11.6468 24.7489 10.3946 24.6521 9.13037C23.4123 9.26059 22.267 9.85315 21.4445 10.79C20.6323 11.7143 20.2209 12.9235 20.3008 14.1514C21.5573 14.1643 22.7502 13.6003 23.5376 12.621Z" fill="#FFFBFF"/>
<path d="M42.057 13.9104H43.479C43.575 13.9104 43.695 13.9044 43.839 13.8924C43.983 13.8744 44.136 13.8384 44.298 13.7844C44.46 13.7244 44.619 13.6404 44.775 13.5324C44.937 13.4244 45.081 13.2774 45.207 13.0914C45.333 12.9054 45.435 12.6744 45.513 12.3984C45.597 12.1164 45.639 11.7774 45.639 11.3814C45.639 10.9974 45.6 10.6554 45.522 10.3554C45.45 10.0494 45.327 9.79137 45.153 9.58137C44.985 9.36537 44.766 9.20337 44.496 9.09537C44.226 8.98137 43.893 8.92437 43.497 8.92437H42.057V13.9104ZM41.202 8.20437H43.407C44.397 8.20437 45.159 8.45637 45.693 8.96037C46.227 9.46437 46.494 10.2324 46.494 11.2644C46.494 11.8044 46.434 12.2844 46.314 12.7044C46.194 13.1184 46.008 13.4694 45.756 13.7574C45.504 14.0394 45.183 14.2554 44.793 14.4054C44.403 14.5554 43.941 14.6304 43.407 14.6304H41.202V8.20437ZM48.1509 12.3084C48.1509 12.5904 48.1869 12.8424 48.2589 13.0644C48.3369 13.2804 48.4419 13.4634 48.5739 13.6134C48.7059 13.7574 48.8589 13.8684 49.0329 13.9464C49.2129 14.0244 49.4019 14.0634 49.5999 14.0634C49.7979 14.0634 49.9839 14.0244 50.1579 13.9464C50.3379 13.8684 50.4939 13.7574 50.6259 13.6134C50.7579 13.4634 50.8599 13.2804 50.9319 13.0644C51.0099 12.8424 51.0489 12.5904 51.0489 12.3084C51.0489 12.0264 51.0099 11.7774 50.9319 11.5614C50.8599 11.3394 50.7579 11.1534 50.6259 11.0034C50.4939 10.8534 50.3379 10.7394 50.1579 10.6614C49.9839 10.5834 49.7979 10.5444 49.5999 10.5444C49.4019 10.5444 49.2129 10.5834 49.0329 10.6614C48.8589 10.7394 48.7059 10.8534 48.5739 11.0034C48.4419 11.1534 48.3369 11.3394 48.2589 11.5614C48.1869 11.7774 48.1509 12.0264 48.1509 12.3084ZM47.3409 12.3084C47.3409 11.9664 47.3889 11.6484 47.4849 11.3544C47.5809 11.0544 47.7249 10.7964 47.9169 10.5804C48.1089 10.3584 48.3459 10.1844 48.6279 10.0584C48.9099 9.93237 49.2339 9.86937 49.5999 9.86937C49.9719 9.86937 50.2959 9.93237 50.5719 10.0584C50.8539 10.1844 51.0909 10.3584 51.2829 10.5804C51.4749 10.7964 51.6189 11.0544 51.7149 11.3544C51.8109 11.6484 51.8589 11.9664 51.8589 12.3084C51.8589 12.6504 51.8109 12.9684 51.7149 13.2624C51.6189 13.5564 51.4749 13.8144 51.2829 14.0364C51.0909 14.2524 50.8539 14.4234 50.5719 14.5494C50.2959 14.6694 49.9719 14.7294 49.5999 14.7294C49.2339 14.7294 48.9099 14.6694 48.6279 14.5494C48.3459 14.4234 48.1089 14.2524 47.9169 14.0364C47.7249 13.8144 47.5809 13.5564 47.4849 13.2624C47.3889 12.9684 47.3409 12.6504 47.3409 12.3084ZM57.5489 14.6304H56.7389L55.7939 10.9314H55.7759L54.8399 14.6304H54.0119L52.5179 9.97737H53.3639L54.4169 13.7844H54.4349L55.3709 9.97737H56.2079L57.1799 13.7844H57.1979L58.2419 9.97737H59.0339L57.5489 14.6304ZM59.9412 9.97737H60.6612V10.7154H60.6792C60.9972 10.1514 61.5012 9.86937 62.1912 9.86937C62.4972 9.86937 62.7522 9.91137 62.9562 9.99537C63.1602 10.0794 63.3252 10.1964 63.4512 10.3464C63.5772 10.4964 63.6642 10.6764 63.7122 10.8864C63.7662 11.0904 63.7932 11.3184 63.7932 11.5704V14.6304H63.0282V11.4804C63.0282 11.1924 62.9442 10.9644 62.7762 10.7964C62.6082 10.6284 62.3772 10.5444 62.0832 10.5444C61.8492 10.5444 61.6452 10.5804 61.4712 10.6524C61.3032 10.7244 61.1622 10.8264 61.0482 10.9584C60.9342 11.0904 60.8472 11.2464 60.7872 11.4264C60.7332 11.6004 60.7062 11.7924 60.7062 12.0024V14.6304H59.9412V9.97737ZM65.1672 8.20437H65.9322V14.6304H65.1672V8.20437ZM67.8553 12.3084C67.8553 12.5904 67.8913 12.8424 67.9633 13.0644C68.0413 13.2804 68.1463 13.4634 68.2783 13.6134C68.4103 13.7574 68.5633 13.8684 68.7373 13.9464C68.9173 14.0244 69.1063 14.0634 69.3043 14.0634C69.5023 14.0634 69.6883 14.0244 69.8623 13.9464C70.0423 13.8684 70.1983 13.7574 70.3303 13.6134C70.4623 13.4634 70.5643 13.2804 70.6363 13.0644C70.7143 12.8424 70.7533 12.5904 70.7533 12.3084C70.7533 12.0264 70.7143 11.7774 70.6363 11.5614C70.5643 11.3394 70.4623 11.1534 70.3303 11.0034C70.1983 10.8534 70.0423 10.7394 69.8623 10.6614C69.6883 10.5834 69.5023 10.5444 69.3043 10.5444C69.1063 10.5444 68.9173 10.5834 68.7373 10.6614C68.5633 10.7394 68.4103 10.8534 68.2783 11.0034C68.1463 11.1534 68.0413 11.3394 67.9633 11.5614C67.8913 11.7774 67.8553 12.0264 67.8553 12.3084ZM67.0453 12.3084C67.0453 11.9664 67.0933 11.6484 67.1893 11.3544C67.2853 11.0544 67.4293 10.7964 67.6213 10.5804C67.8133 10.3584 68.0503 10.1844 68.3323 10.0584C68.6143 9.93237 68.9383 9.86937 69.3043 9.86937C69.6763 9.86937 70.0003 9.93237 70.2763 10.0584C70.5583 10.1844 70.7953 10.3584 70.9873 10.5804C71.1793 10.7964 71.3233 11.0544 71.4193 11.3544C71.5153 11.6484 71.5633 11.9664 71.5633 12.3084C71.5633 12.6504 71.5153 12.9684 71.4193 13.2624C71.3233 13.5564 71.1793 13.8144 70.9873 14.0364C70.7953 14.2524 70.5583 14.4234 70.2763 14.5494C70.0003 14.6694 69.6763 14.7294 69.3043 14.7294C68.9383 14.7294 68.6143 14.6694 68.3323 14.5494C68.0503 14.4234 67.8133 14.2524 67.6213 14.0364C67.4293 13.8144 67.2853 13.5564 67.1893 13.2624C67.0933 12.9684 67.0453 12.6504 67.0453 12.3084ZM76.7673 14.6124C76.6353 14.6904 76.4523 14.7294 76.2183 14.7294C76.0203 14.7294 75.8613 14.6754 75.7413 14.5674C75.6273 14.4534 75.5703 14.2704 75.5703 14.0184C75.3603 14.2704 75.1143 14.4534 74.8323 14.5674C74.5563 14.6754 74.2563 14.7294 73.9323 14.7294C73.7223 14.7294 73.5213 14.7054 73.3293 14.6574C73.1433 14.6094 72.9813 14.5344 72.8433 14.4324C72.7053 14.3304 72.5943 14.1984 72.5103 14.0364C72.4323 13.8684 72.3933 13.6674 72.3933 13.4334C72.3933 13.1694 72.4383 12.9534 72.5283 12.7854C72.6183 12.6174 72.7353 12.4824 72.8793 12.3804C73.0293 12.2724 73.1973 12.1914 73.3833 12.1374C73.5753 12.0834 73.7703 12.0384 73.9683 12.0024C74.1783 11.9604 74.3763 11.9304 74.5623 11.9124C74.7543 11.8884 74.9223 11.8584 75.0663 11.8224C75.2103 11.7804 75.3243 11.7234 75.4083 11.6514C75.4923 11.5734 75.5343 11.4624 75.5343 11.3184C75.5343 11.1504 75.5013 11.0154 75.4353 10.9134C75.3753 10.8114 75.2943 10.7334 75.1923 10.6794C75.0963 10.6254 74.9853 10.5894 74.8593 10.5714C74.7393 10.5534 74.6193 10.5444 74.4993 10.5444C74.1753 10.5444 73.9053 10.6074 73.6893 10.7334C73.4733 10.8534 73.3563 11.0844 73.3383 11.4264H72.5733C72.5853 11.1384 72.6453 10.8954 72.7533 10.6974C72.8613 10.4994 73.0053 10.3404 73.1853 10.2204C73.3653 10.0944 73.5693 10.0044 73.7973 9.95037C74.0313 9.89637 74.2803 9.86937 74.5443 9.86937C74.7543 9.86937 74.9613 9.88437 75.1653 9.91437C75.3753 9.94437 75.5643 10.0074 75.7323 10.1034C75.9003 10.1934 76.0353 10.3224 76.1373 10.4904C76.2393 10.6584 76.2903 10.8774 76.2903 11.1474V13.5414C76.2903 13.7214 76.2993 13.8534 76.3173 13.9374C76.3413 14.0214 76.4133 14.0634 76.5333 14.0634C76.5993 14.0634 76.6773 14.0484 76.7673 14.0184V14.6124ZM75.5253 12.2274C75.4293 12.2994 75.3033 12.3534 75.1473 12.3894C74.9913 12.4194 74.8263 12.4464 74.6523 12.4704C74.4843 12.4884 74.3133 12.5124 74.1393 12.5424C73.9653 12.5664 73.8093 12.6084 73.6713 12.6684C73.5333 12.7284 73.4193 12.8154 73.3293 12.9294C73.2453 13.0374 73.2033 13.1874 73.2033 13.3794C73.2033 13.5054 73.2273 13.6134 73.2753 13.7034C73.3293 13.7874 73.3953 13.8564 73.4733 13.9104C73.5573 13.9644 73.6533 14.0034 73.7613 14.0274C73.8693 14.0514 73.9833 14.0634 74.1033 14.0634C74.3553 14.0634 74.5713 14.0304 74.7513 13.9644C74.9313 13.8924 75.0783 13.8054 75.1923 13.7034C75.3063 13.5954 75.3903 13.4814 75.4443 13.3614C75.4983 13.2354 75.5253 13.1184 75.5253 13.0104V12.2274ZM78.2172 12.3444C78.2172 12.5604 78.2442 12.7734 78.2982 12.9834C78.3582 13.1874 78.4452 13.3704 78.5592 13.5324C78.6792 13.6944 78.8292 13.8234 79.0092 13.9194C79.1952 14.0154 79.4112 14.0634 79.6572 14.0634C79.9152 14.0634 80.1342 14.0124 80.3142 13.9104C80.4942 13.8084 80.6412 13.6764 80.7552 13.5144C80.8692 13.3464 80.9502 13.1574 80.9982 12.9474C81.0522 12.7374 81.0792 12.5244 81.0792 12.3084C81.0792 12.0804 81.0522 11.8614 80.9982 11.6514C80.9442 11.4354 80.8572 11.2464 80.7372 11.0844C80.6232 10.9224 80.4732 10.7934 80.2872 10.6974C80.1012 10.5954 79.8762 10.5444 79.6122 10.5444C79.3542 10.5444 79.1352 10.5954 78.9552 10.6974C78.7752 10.7994 78.6312 10.9344 78.5232 11.1024C78.4152 11.2704 78.3372 11.4624 78.2892 11.6784C78.2412 11.8944 78.2172 12.1164 78.2172 12.3444ZM81.8172 14.6304H81.0522V14.0004H81.0342C80.9082 14.2584 80.7102 14.4444 80.4402 14.5584C80.1702 14.6724 79.8732 14.7294 79.5492 14.7294C79.1892 14.7294 78.8742 14.6634 78.6042 14.5314C78.3402 14.3994 78.1182 14.2224 77.9382 14.0004C77.7642 13.7784 77.6322 13.5204 77.5422 13.2264C77.4522 12.9324 77.4072 12.6204 77.4072 12.2904C77.4072 11.9604 77.4492 11.6484 77.5332 11.3544C77.6232 11.0604 77.7552 10.8054 77.9292 10.5894C78.1092 10.3674 78.3312 10.1934 78.5952 10.0674C78.8652 9.93537 79.1772 9.86937 79.5312 9.86937C79.6512 9.86937 79.7802 9.88137 79.9182 9.90537C80.0562 9.92937 80.1942 9.97137 80.3322 10.0314C80.4702 10.0854 80.5992 10.1604 80.7192 10.2564C80.8452 10.3464 80.9502 10.4604 81.0342 10.5984H81.0522V8.20437H81.8172V14.6304ZM86.4171 12.3084C86.4171 12.5904 86.4531 12.8424 86.5251 13.0644C86.6031 13.2804 86.7081 13.4634 86.8401 13.6134C86.9721 13.7574 87.1251 13.8684 87.2991 13.9464C87.4791 14.0244 87.6681 14.0634 87.8661 14.0634C88.0641 14.0634 88.2501 14.0244 88.4241 13.9464C88.6041 13.8684 88.7601 13.7574 88.8921 13.6134C89.0241 13.4634 89.1261 13.2804 89.1981 13.0644C89.2761 12.8424 89.3151 12.5904 89.3151 12.3084C89.3151 12.0264 89.2761 11.7774 89.1981 11.5614C89.1261 11.3394 89.0241 11.1534 88.8921 11.0034C88.7601 10.8534 88.6041 10.7394 88.4241 10.6614C88.2501 10.5834 88.0641 10.5444 87.8661 10.5444C87.6681 10.5444 87.4791 10.5834 87.2991 10.6614C87.1251 10.7394 86.9721 10.8534 86.8401 11.0034C86.7081 11.1534 86.6031 11.3394 86.5251 11.5614C86.4531 11.7774 86.4171 12.0264 86.4171 12.3084ZM85.6071 12.3084C85.6071 11.9664 85.6551 11.6484 85.7511 11.3544C85.8471 11.0544 85.9911 10.7964 86.1831 10.5804C86.3751 10.3584 86.6121 10.1844 86.8941 10.0584C87.1761 9.93237 87.5001 9.86937 87.8661 9.86937C88.2381 9.86937 88.5621 9.93237 88.8381 10.0584C89.1201 10.1844 89.3571 10.3584 89.5491 10.5804C89.7411 10.7964 89.8851 11.0544 89.9811 11.3544C90.0771 11.6484 90.1251 11.9664 90.1251 12.3084C90.1251 12.6504 90.0771 12.9684 89.9811 13.2624C89.8851 13.5564 89.7411 13.8144 89.5491 14.0364C89.3571 14.2524 89.1201 14.4234 88.8381 14.5494C88.5621 14.6694 88.2381 14.7294 87.8661 14.7294C87.5001 14.7294 87.1761 14.6694 86.8941 14.5494C86.6121 14.4234 86.3751 14.2524 86.1831 14.0364C85.9911 13.8144 85.8471 13.5564 85.7511 13.2624C85.6551 12.9684 85.6071 12.6504 85.6071 12.3084ZM91.2071 9.97737H91.9271V10.7154H91.9451C92.2631 10.1514 92.7671 9.86937 93.4571 9.86937C93.7631 9.86937 94.0181 9.91137 94.2221 9.99537C94.4261 10.0794 94.5911 10.1964 94.7171 10.3464C94.8431 10.4964 94.9301 10.6764 94.9781 10.8864C95.0321 11.0904 95.0591 11.3184 95.0591 11.5704V14.6304H94.2941V11.4804C94.2941 11.1924 94.2101 10.9644 94.0421 10.7964C93.8741 10.6284 93.6431 10.5444 93.3491 10.5444C93.1151 10.5444 92.9111 10.5804 92.7371 10.6524C92.5691 10.7244 92.4281 10.8264 92.3141 10.9584C92.2001 11.0904 92.1131 11.2464 92.0531 11.4264C91.9991 11.6004 91.9721 11.7924 91.9721 12.0024V14.6304H91.2071V9.97737ZM100.135 9.97737H101.062V10.6524H100.135V13.5414C100.135 13.6314 100.141 13.7034 100.153 13.7574C100.171 13.8114 100.201 13.8534 100.243 13.8834C100.285 13.9134 100.342 13.9344 100.414 13.9464C100.492 13.9524 100.591 13.9554 100.711 13.9554H101.062V14.6304H100.477C100.279 14.6304 100.108 14.6184 99.9639 14.5944C99.8259 14.5644 99.7119 14.5134 99.6219 14.4414C99.5379 14.3694 99.4749 14.2674 99.4329 14.1354C99.3909 14.0034 99.3699 13.8294 99.3699 13.6134V10.6524H98.5779V9.97737H99.3699V8.58237H100.135V9.97737ZM102.092 8.20437H102.857V10.6614H102.875C102.935 10.5174 103.019 10.3974 103.127 10.3014C103.235 10.1994 103.355 10.1184 103.487 10.0584C103.625 9.99237 103.766 9.94437 103.91 9.91437C104.06 9.88437 104.204 9.86937 104.342 9.86937C104.648 9.86937 104.903 9.91137 105.107 9.99537C105.311 10.0794 105.476 10.1964 105.602 10.3464C105.728 10.4964 105.815 10.6764 105.863 10.8864C105.917 11.0904 105.944 11.3184 105.944 11.5704V14.6304H105.179V11.4804C105.179 11.1924 105.095 10.9644 104.927 10.7964C104.759 10.6284 104.528 10.5444 104.234 10.5444C104 10.5444 103.796 10.5804 103.622 10.6524C103.454 10.7244 103.313 10.8264 103.199 10.9584C103.085 11.0904 102.998 11.2464 102.938 11.4264C102.884 11.6004 102.857 11.7924 102.857 12.0024V14.6304H102.092V8.20437ZM110.504 11.8584C110.492 11.6784 110.45 11.5074 110.378 11.3454C110.312 11.1834 110.219 11.0454 110.099 10.9314C109.985 10.8114 109.847 10.7184 109.685 10.6524C109.529 10.5804 109.355 10.5444 109.163 10.5444C108.965 10.5444 108.785 10.5804 108.623 10.6524C108.467 10.7184 108.332 10.8114 108.218 10.9314C108.104 11.0514 108.014 11.1924 107.948 11.3544C107.882 11.5104 107.843 11.6784 107.831 11.8584H110.504ZM111.242 13.1544C111.14 13.6764 110.915 14.0694 110.567 14.3334C110.219 14.5974 109.781 14.7294 109.253 14.7294C108.881 14.7294 108.557 14.6694 108.281 14.5494C108.011 14.4294 107.783 14.2614 107.597 14.0454C107.411 13.8294 107.27 13.5714 107.174 13.2714C107.084 12.9714 107.033 12.6444 107.021 12.2904C107.021 11.9364 107.075 11.6124 107.183 11.3184C107.291 11.0244 107.441 10.7694 107.633 10.5534C107.831 10.3374 108.062 10.1694 108.326 10.0494C108.596 9.92937 108.89 9.86937 109.208 9.86937C109.622 9.86937 109.964 9.95637 110.234 10.1304C110.51 10.2984 110.729 10.5144 110.891 10.7784C111.059 11.0424 111.173 11.3304 111.233 11.6424C111.299 11.9544 111.326 12.2514 111.314 12.5334H107.831C107.825 12.7374 107.849 12.9324 107.903 13.1184C107.957 13.2984 108.044 13.4604 108.164 13.6044C108.284 13.7424 108.437 13.8534 108.623 13.9374C108.809 14.0214 109.028 14.0634 109.28 14.0634C109.604 14.0634 109.868 13.9884 110.072 13.8384C110.282 13.6884 110.42 13.4604 110.486 13.1544H111.242Z" fill="#FFFBFF"/>
<path d="M57.4199 22.107C59.7177 22.107 61.2324 23.9234 61.2324 26.7291C61.2324 29.5425 59.7266 31.3502 57.4541 31.3502C56.2795 31.4116 55.1731 30.7964 54.6055 29.7662H54.5625V34.2505H52.7041V22.2017H54.5029V23.7076H54.5371C55.1299 22.6838 56.2375 22.0688 57.4199 22.107ZM67.3847 22.107C69.6826 22.107 71.1973 23.9234 71.1973 26.7291C71.1973 29.5425 69.6914 31.3502 67.4189 31.3502C66.2443 31.4116 65.1379 30.7964 64.5703 29.7662H64.5273V34.2505H62.6689V22.2017H64.4677V23.7076H64.5019C65.0947 22.6838 66.2023 22.0689 67.3847 22.107ZM80.7266 18.6304C83.3506 18.6304 85.1494 20.1021 85.21 22.2446H83.334C83.2217 21.0054 82.1972 20.2573 80.7002 20.2573C79.2031 20.2573 78.1787 21.0142 78.1787 22.1157C78.1787 22.9937 78.833 23.5103 80.4336 23.9057L81.8017 24.2417C84.3496 24.8442 85.4082 25.8677 85.4082 27.6841C85.4082 30.0073 83.5576 31.4624 80.6142 31.4624C77.8603 31.4624 76.001 30.0415 75.8808 27.7954L77.7832 27.7955C77.9209 29.0269 79.1172 29.8355 80.7519 29.8355C82.3184 29.8355 83.4453 29.0269 83.4453 27.9165C83.4453 26.9526 82.7656 26.3755 81.1562 25.98L79.5469 25.5923C77.2666 25.0415 76.208 23.9751 76.208 22.2446C76.208 20.1021 78.0752 18.6304 80.7266 18.6304ZM96.4317 22.0904C99.0567 22.0904 100.727 23.8804 100.727 26.7291C100.727 29.5855 99.0655 31.3677 96.4317 31.3677C93.7988 31.3677 92.1377 29.5855 92.1377 26.7291C92.1377 23.8804 93.8155 22.0904 96.4317 22.0904ZM111.48 22.0904C113.985 22.0904 115.561 23.8111 115.561 26.5562V27.1929H109.166V27.3052C109.106 27.9793 109.339 28.6465 109.805 29.1371C110.271 29.6278 110.925 29.8946 111.602 29.8697C112.503 29.9542 113.354 29.4363 113.692 28.5962L115.457 28.5962C115.207 30.2398 113.606 31.3677 111.559 31.3677C108.925 31.3677 107.29 29.6031 107.29 26.772C107.29 23.9322 108.934 22.0904 111.48 22.0904ZM89.4189 20.0591V22.2017H91.1406V23.6734H89.4189V28.6646C89.4189 29.44 89.7637 29.8013 90.5205 29.8013C90.7249 29.7978 90.929 29.7834 91.1318 29.7583V31.2212C90.7916 31.2848 90.4457 31.3136 90.0996 31.3071C88.2666 31.3071 87.5518 30.6187 87.5518 28.8628V23.6734H86.2354V22.2017H87.5517V20.0591H89.4189ZM47.0664 18.8374L51.5498 31.2554H49.5107L48.375 27.899H43.6416L42.5049 31.2554H40.5L44.9834 18.8374H47.0664ZM106.252 22.107C106.466 22.1062 106.68 22.1295 106.889 22.1763V23.9146C106.618 23.832 106.336 23.794 106.054 23.8023C105.507 23.7801 104.979 23.9979 104.606 24.3983C104.234 24.7988 104.055 25.342 104.117 25.8853V31.2554H102.259V22.2017H104.031V23.7427H104.074C104.321 22.7507 105.23 22.068 106.252 22.107ZM96.4317 23.6216C94.9258 23.6216 94.0313 24.7838 94.0313 26.7291C94.0313 28.691 94.9258 29.8355 96.4317 29.8355C97.9375 29.8355 98.833 28.691 98.833 26.7291C98.833 24.775 97.9375 23.6216 96.4317 23.6216ZM56.9297 23.691C55.5098 23.691 54.5547 24.9214 54.5547 26.7291C54.5547 28.5533 55.5098 29.775 56.9297 29.775C58.375 29.775 59.3223 28.5787 59.3223 26.7291C59.3223 24.8961 58.375 23.691 56.9297 23.691ZM66.8945 23.691C65.4746 23.691 64.5195 24.9214 64.5195 26.7291C64.5195 28.5533 65.4746 29.775 66.8945 29.775C68.3398 29.775 69.2871 28.5787 69.2871 26.7291C69.2871 24.8961 68.3398 23.691 66.8945 23.691ZM46.0342 20.9029H45.9825L44.1318 26.3502H47.8838L46.0342 20.9029ZM111.48 23.5962C110.869 23.5926 110.282 23.8333 109.849 24.2648C109.416 24.6963 109.173 25.2828 109.175 25.8941H113.701C113.735 25.2884 113.514 24.6962 113.093 24.26C112.671 23.8238 112.087 23.5832 111.48 23.5962Z" fill="#FFFBFF"/>
<rect x="1" y="0.630371" width="129" height="39" rx="5.5" stroke="#FFFBFF"/>
</svg>
