<svg width="131" height="41" viewBox="0 0 131 41" fill="none" xmlns="http://www.w3.org/2000/svg">
<path fill-rule="evenodd" clip-rule="evenodd" d="M9.93514 7.67722C9.64414 7.98522 9.47314 8.46222 9.47314 9.08122V31.1792C9.47314 31.7982 9.64414 32.2752 9.93514 32.5832L10.0091 32.6552L22.3881 20.2762V19.9842L10.0091 7.60522L9.93514 7.67722Z" fill="#00D7FE"/>
<mask id="mask0_325_34737" style="mask-type:alpha" maskUnits="userSpaceOnUse" x="22" y="15" width="11" height="10">
<path d="M26.5132 24.4044L22.3882 20.2764V19.9844L26.5152 15.8574L31.4972 18.6874C32.8932 19.4814 32.8932 20.7794 31.4972 21.5724L26.6082 24.3504L26.5132 24.4044Z" fill="white"/>
</mask>
<g mask="url(#mask0_325_34737)">
<path fill-rule="evenodd" clip-rule="evenodd" d="M26.5132 24.4044L22.3882 20.2764V19.9844L26.5152 15.8574L31.4972 18.6874C32.8932 19.4814 32.8932 20.7794 31.4972 21.5724L26.6082 24.3504L26.5132 24.4044Z" fill="url(#paint0_linear_325_34737)"/>
</g>
<mask id="mask1_325_34737" style="mask-type:alpha" maskUnits="userSpaceOnUse" x="9" y="20" width="18" height="13">
<path d="M26.6081 24.3504L22.3881 20.1304L9.93506 32.5834C10.3961 33.0704 11.1561 33.1304 12.0121 32.6444L26.6081 24.3504Z" fill="white"/>
</mask>
<g mask="url(#mask1_325_34737)">
<path fill-rule="evenodd" clip-rule="evenodd" d="M26.6081 24.3504L22.3881 20.1304L9.93506 32.5834C10.3961 33.0704 11.1561 33.1304 12.0121 32.6444L26.6081 24.3504Z" fill="url(#paint1_linear_325_34737)"/>
</g>
<mask id="mask2_325_34737" style="mask-type:alpha" maskUnits="userSpaceOnUse" x="9" y="7" width="18" height="14">
<path d="M26.6081 15.9103L12.0121 7.6163C11.1561 7.1303 10.3961 7.1903 9.93506 7.6773L22.3881 20.1303L26.6081 15.9103Z" fill="white"/>
</mask>
<g mask="url(#mask2_325_34737)">
<path fill-rule="evenodd" clip-rule="evenodd" d="M26.6081 15.9103L12.0121 7.6163C11.1561 7.1303 10.3961 7.1903 9.93506 7.6773L22.3881 20.1303L26.6081 15.9103Z" fill="url(#paint2_linear_325_34737)"/>
</g>
<path fill-rule="evenodd" clip-rule="evenodd" d="M104.394 31.0834H106.26V18.5824H104.394V31.0834ZM121.201 23.0854L119.062 28.5054H118.998L116.778 23.0854H114.768L118.097 30.6604L116.199 34.8744H118.146L123.276 23.0854H121.201ZM110.619 29.6634C110.007 29.6634 109.155 29.3584 109.155 28.6024C109.155 27.6374 110.217 27.2674 111.133 27.2674C111.954 27.2674 112.339 27.4444 112.838 27.6854C112.693 28.8434 111.696 29.6634 110.619 29.6634ZM110.844 22.8124C109.493 22.8124 108.094 23.4074 107.515 24.7264L109.171 25.4174C109.525 24.7264 110.184 24.5004 110.876 24.5004C111.841 24.5004 112.822 25.0794 112.838 26.1094V26.2374C112.5 26.0444 111.777 25.7554 110.892 25.7554C109.107 25.7554 107.289 26.7364 107.289 28.5694C107.289 30.2424 108.753 31.3204 110.393 31.3204C111.648 31.3204 112.339 30.7574 112.774 30.0974H112.838V31.0624H114.639V26.2704C114.639 24.0504 112.983 22.8124 110.844 22.8124ZM99.312 24.6074H96.658V20.3224H99.312C100.707 20.3224 101.499 21.4774 101.499 22.4644C101.499 23.4334 100.707 24.6074 99.312 24.6074ZM99.264 18.5824H94.793V31.0834H96.658V26.3474H99.264C101.332 26.3474 103.365 24.8494 103.365 22.4644C103.365 20.0794 101.332 18.5824 99.264 18.5824ZM74.883 29.6654C73.594 29.6654 72.515 28.5864 72.515 27.1044C72.515 25.6064 73.594 24.5104 74.883 24.5104C76.156 24.5104 77.154 25.6064 77.154 27.1044C77.154 28.5864 76.156 29.6654 74.883 29.6654ZM77.025 23.7854H76.961C76.542 23.2864 75.737 22.8354 74.722 22.8354C72.595 22.8354 70.646 24.7034 70.646 27.1044C70.646 29.4884 72.595 31.3414 74.722 31.3414C75.737 31.3414 76.542 30.8904 76.961 30.3744H77.025V30.9864C77.025 32.6144 76.156 33.4844 74.754 33.4844C73.61 33.4844 72.901 32.6624 72.611 31.9694L70.984 32.6464C71.451 33.7744 72.692 35.1594 74.754 35.1594C76.945 35.1594 78.798 33.8704 78.798 30.7294V23.0924H77.025V23.7854ZM80.087 31.0834H81.956V18.5814H80.087V31.0834ZM84.71 26.9594C84.662 25.3164 85.983 24.4784 86.933 24.4784C87.675 24.4784 88.303 24.8484 88.512 25.3804L84.71 26.9594ZM90.51 25.5414C90.156 24.5914 89.076 22.8354 86.869 22.8354C84.678 22.8354 82.858 24.5584 82.858 27.0884C82.858 29.4724 84.662 31.3414 87.078 31.3414C89.028 31.3414 90.156 30.1494 90.623 29.4564L89.173 28.4894C88.69 29.1984 88.029 29.6654 87.078 29.6654C86.128 29.6654 85.451 29.2304 85.016 28.3774L90.703 26.0254L90.51 25.5414ZM45.202 24.1404V25.9444H49.519C49.39 26.9594 49.052 27.7004 48.537 28.2164C47.908 28.8444 46.925 29.5364 45.202 29.5364C42.544 29.5364 40.465 27.3944 40.465 24.7364C40.465 22.0774 42.544 19.9354 45.202 19.9354C46.636 19.9354 47.683 20.4994 48.456 21.2244L49.729 19.9514C48.649 18.9204 47.216 18.1304 45.202 18.1304C41.561 18.1304 38.5 21.0954 38.5 24.7364C38.5 28.3774 41.561 31.3414 45.202 31.3414C47.167 31.3414 48.649 30.6974 49.809 29.4884C51.001 28.2964 51.372 26.6214 51.372 25.2674C51.372 24.8484 51.34 24.4624 51.275 24.1404H45.202ZM56.281 29.6654C54.992 29.6654 53.88 28.6024 53.88 27.0884C53.88 25.5574 54.992 24.5104 56.281 24.5104C57.569 24.5104 58.681 25.5574 58.681 27.0884C58.681 28.6024 57.569 29.6654 56.281 29.6654ZM56.281 22.8354C53.928 22.8354 52.011 24.6234 52.011 27.0884C52.011 29.5364 53.928 31.3414 56.281 31.3414C58.633 31.3414 60.55 29.5364 60.55 27.0884C60.55 24.6234 58.633 22.8354 56.281 22.8354ZM65.594 29.6654C64.305 29.6654 63.193 28.6024 63.193 27.0884C63.193 25.5574 64.305 24.5104 65.594 24.5104C66.883 24.5104 67.994 25.5574 67.994 27.0884C67.994 28.6024 66.883 29.6654 65.594 29.6654ZM65.594 22.8354C63.242 22.8354 61.325 24.6234 61.325 27.0884C61.325 29.5364 63.242 31.3414 65.594 31.3414C67.946 31.3414 69.863 29.5364 69.863 27.0884C69.863 24.6234 67.946 22.8354 65.594 22.8354Z" fill="#FFFBFF"/>
<path d="M43.9712 10.9443V13.2866C43.8921 13.4038 43.7661 13.5356 43.5933 13.6821C43.4204 13.8257 43.1816 13.9517 42.877 14.0601C42.5752 14.1655 42.1855 14.2183 41.708 14.2183C41.3184 14.2183 40.9595 14.1509 40.6313 14.0161C40.3062 13.8784 40.0234 13.6792 39.7832 13.4185C39.5459 13.1548 39.3613 12.8354 39.2295 12.4604C39.1006 12.0825 39.0361 11.6548 39.0361 11.1772V10.6807C39.0361 10.2031 39.0918 9.77686 39.2031 9.40186C39.3174 9.02686 39.4844 8.70898 39.7041 8.44824C39.9238 8.18457 40.1934 7.98535 40.5127 7.85059C40.832 7.71289 41.1982 7.64404 41.6113 7.64404C42.1006 7.64404 42.5093 7.729 42.8374 7.89893C43.1685 8.06592 43.4263 8.29736 43.6108 8.59326C43.7983 8.88916 43.9185 9.22607 43.9712 9.604H43.123C43.085 9.37256 43.0088 9.16162 42.8945 8.97119C42.7832 8.78076 42.6235 8.62842 42.4155 8.51416C42.2075 8.39697 41.9395 8.33838 41.6113 8.33838C41.3154 8.33838 41.0591 8.39258 40.8423 8.50098C40.6255 8.60938 40.4468 8.76465 40.3062 8.9668C40.1655 9.16895 40.0601 9.41357 39.9897 9.70068C39.9224 9.98779 39.8887 10.3115 39.8887 10.6719V11.1772C39.8887 11.5464 39.9312 11.876 40.0161 12.166C40.104 12.4561 40.2285 12.7036 40.3896 12.9087C40.5508 13.1108 40.7427 13.2646 40.9653 13.3701C41.1909 13.4756 41.4399 13.5283 41.7124 13.5283C42.0142 13.5283 42.2588 13.5034 42.4463 13.4536C42.6338 13.4009 42.7803 13.3394 42.8857 13.269C42.9912 13.1958 43.0718 13.127 43.1274 13.0625V11.6299H41.6465V10.9443H43.9712ZM49.1724 13.4404V14.1304H45.7842V13.4404H49.1724ZM45.9556 7.73193V14.1304H45.1074V7.73193H45.9556ZM48.7241 10.4829V11.1729H45.7842V10.4829H48.7241ZM49.1284 7.73193V8.42627H45.7842V7.73193H49.1284ZM52.4048 7.73193V14.1304H51.5699V7.73193H52.4048ZM54.4615 7.73193V8.42627H49.5176V7.73193H54.4615ZM57.837 7.73193V14.1304H56.9888V7.73193H57.837ZM61.3419 7.73193V14.1304H60.5069V7.73193H61.3419ZM63.3985 7.73193V8.42627H58.4547V7.73193H63.3985ZM70.7907 10.729V11.1333C70.7907 11.6138 70.7306 12.0444 70.6105 12.4253C70.4904 12.8062 70.3175 13.1299 70.0919 13.3965C69.8663 13.6631 69.5954 13.8667 69.2789 14.0073C68.9655 14.1479 68.6139 14.2183 68.2243 14.2183C67.8463 14.2183 67.4992 14.1479 67.1828 14.0073C66.8693 13.8667 66.5968 13.6631 66.3654 13.3965C66.1369 13.1299 65.9596 12.8062 65.8336 12.4253C65.7077 12.0444 65.6447 11.6138 65.6447 11.1333V10.729C65.6447 10.2485 65.7062 9.81934 65.8292 9.44141C65.9552 9.06055 66.1325 8.73682 66.361 8.47021C66.5895 8.20068 66.8605 7.99561 67.174 7.85498C67.4904 7.71436 67.8375 7.64404 68.2155 7.64404C68.6051 7.64404 68.9567 7.71436 69.2702 7.85498C69.5866 7.99561 69.8576 8.20068 70.0831 8.47021C70.3117 8.73682 70.486 9.06055 70.6061 9.44141C70.7291 9.81934 70.7907 10.2485 70.7907 10.729ZM69.9513 11.1333V10.7202C69.9513 10.3394 69.9118 10.0024 69.8327 9.70947C69.7565 9.4165 69.6437 9.17041 69.4943 8.97119C69.3449 8.77197 69.1618 8.62109 68.945 8.51855C68.7311 8.41602 68.4879 8.36475 68.2155 8.36475C67.9518 8.36475 67.713 8.41602 67.4992 8.51855C67.2882 8.62109 67.1066 8.77197 66.9542 8.97119C66.8048 9.17041 66.6891 9.4165 66.6071 9.70947C66.525 10.0024 66.484 10.3394 66.484 10.7202V11.1333C66.484 11.5171 66.525 11.8569 66.6071 12.1528C66.6891 12.4458 66.8063 12.6934 66.9586 12.8955C67.1139 13.0947 67.297 13.2456 67.5079 13.3481C67.7218 13.4507 67.9606 13.502 68.2243 13.502C68.4996 13.502 68.7443 13.4507 68.9581 13.3481C69.172 13.2456 69.3522 13.0947 69.4987 12.8955C69.6481 12.6934 69.7609 12.4458 69.8371 12.1528C69.9132 11.8569 69.9513 11.5171 69.9513 11.1333ZM76.7126 7.73193V14.1304H75.86L72.6388 9.19531V14.1304H71.7907V7.73193H72.6388L75.8732 12.6802V7.73193H76.7126Z" fill="#FFFBFF"/>
<rect x="1" y="0.630371" width="129" height="39" rx="5.5" stroke="#FFFBFF"/>
<defs>
<linearGradient id="paint0_linear_325_34737" x1="30.589" y1="20.1307" x2="22.3882" y2="20.1307" gradientUnits="userSpaceOnUse">
<stop stop-color="#FFBC00"/>
<stop offset="1" stop-color="#FFDA03"/>
</linearGradient>
<linearGradient id="paint1_linear_325_34737" x1="24.3147" y1="24.1012" x2="13.6112" y2="32.9237" gradientUnits="userSpaceOnUse">
<stop stop-color="#E22652"/>
<stop offset="1" stop-color="#FF3A44"/>
</linearGradient>
<linearGradient id="paint2_linear_325_34737" x1="11.8207" y1="9.17646" x2="18.957" y2="15.4514" gradientUnits="userSpaceOnUse">
<stop stop-color="#0ED574"/>
<stop offset="1" stop-color="#07F076"/>
</linearGradient>
</defs>
</svg>
